<?xml version="1.0" encoding="utf-8"?><svg viewBox="0 0 138 37" xmlns="http://www.w3.org/2000/svg" xmlns:xlink="http://www.w3.org/1999/xlink"><style>:root>svg{display:none}:root>svg:target{display:block}</style><svg viewBox="0 0 10 6" id="arrow-icon" xmlns="http://www.w3.org/2000/svg"><path d="M1.17 6l3.99-3.832 3.753 3.604L10 4.73 5.077 0 0 4.876 1.17 6z"/></svg><svg viewBox="0 0 6 10" id="arrow-left" xmlns="http://www.w3.org/2000/svg"><path d="M6 8.83L4.876 10 0 4.923 4.729 0l1.043 1.087L2.168 4.84 6 8.83z"/></svg><svg viewBox="0 0 6 10" id="arrow-right" xmlns="http://www.w3.org/2000/svg"><path d="M0 8.83l3.832-3.99L.228 1.087 1.27 0 6 4.923 1.124 10 0 8.83z"/></svg><svg viewBox="0 0 16 16" id="ball-icon" xmlns="http://www.w3.org/2000/svg"><path opacity=".5" fill-rule="evenodd" clip-rule="evenodd" d="M5.676.356A7.942 7.942 0 0113.83 2.52c-.497 1.418-1.323 2.92-2.68 3.903A7.912 7.912 0 005.676.356zM1.807 2.922A8.023 8.023 0 014.132.988c3.088.37 5.693 2.77 6.161 5.945a5.868 5.868 0 01-1.958.529c-1.027-2.574-3.76-4.031-6.528-4.54zm12.722.45c-1.2 3.009-3.354 4.787-6.19 5.037-.516 1.015-.77 1.982-.775 2.878 3.856.226 7.052-2.299 8.081-5.67a7.935 7.935 0 00-1.116-2.246zM7.63 12.227c3.711.166 6.818-1.934 8.337-4.904.018.213.033.427.033.645 0 3.92-2.85 7.244-6.584 7.902a6.586 6.586 0 01-1.786-3.643zm-1.005-.915c0-1.077.286-2.199.897-3.383a5.194 5.194 0 00-1.19-1.848c-2.94 2.303-3.391 6.602-1.011 9.445.839.3 1.77.473 2.71.473.047 0 .093-.003.139-.006.034-.003.069-.005.103-.006a7.507 7.507 0 01-1.648-4.675zm-5.42-7.536c1.58.226 3.208.772 4.417 1.682-2.76 2.266-3.575 6.132-1.993 9.247A8.074 8.074 0 010 7.969a7.91 7.91 0 011.204-4.192z"/></svg><svg viewBox="0 0 12 17" id="chess-icon" xmlns="http://www.w3.org/2000/svg"><path opacity=".5" fill-rule="evenodd" clip-rule="evenodd" d="M.04.396c0 .28-.001.554.001.827.002.148-.01.301-.02.455-.026.36-.052.722.083 1.022.128.284.405.509.684.735.14.115.282.23.405.353.17.17.352.228.6.228l1.661-.007c2.002-.01 4.004-.02 6.004.021.819.017 1.39-.192 1.942-.738.418-.413.641-.794.594-1.362a12.95 12.95 0 01-.02-1.338c.003-.196.007-.394.007-.592H8.723v.967H7.635V.005H4.37v.96H3.279V.01H.04v.386zm2.184 5.585h7.563v-.947H2.224v.947zm-1.067 7.985h9.721v-.958H1.157v.958zM11.959 17H.062v-1.989H11.96V17zm-9.662-5.023h7.428l-.902-4.963H3.198l-.9 4.963z"/></svg><svg viewBox="0 0 7 12" id="lighting-icon" xmlns="http://www.w3.org/2000/svg"><path d="M6.98 4.116A.206.206 0 006.795 4h-2.44L6.762.307A.195.195 0 006.77.104.207.207 0 006.589 0H3.293a.207.207 0 00-.184.11l-3.088 6a.195.195 0 00.009.195.208.208 0 00.175.095h2.117L.016 11.722a.197.197 0 00.082.249.21.21 0 00.265-.042l6.589-7.6a.196.196 0 00.029-.213z"/></svg><svg viewBox="0 0 138 37" id="main-logo" xmlns="http://www.w3.org/2000/svg"><g clip-path="url(#ga)"><g clip-path="url(#gb)"><path d="M4.436 27.372h2.906c1.08 0 2.026-.148 2.84-.444.828-.31 1.478-.754 1.951-1.33.489-.578.733-1.273.733-2.086 0-.887-.245-1.62-.732-2.196-.474-.591-1.124-1.028-1.953-1.309-.813-.296-1.76-.443-2.839-.443h-5.7V35.09h6.077c1.228 0 2.292-.148 3.195-.444.902-.31 1.597-.783 2.085-1.42.502-.635.754-1.47.754-2.506 0-.784-.178-1.45-.533-1.996a4.08 4.08 0 00-1.375-1.376 6.048 6.048 0 00-1.93-.798 9.798 9.798 0 00-2.196-.244H4.436v2.04h2.862c.37 0 .702.038.998.111.31.06.584.163.82.311.237.148.422.34.555.577.133.236.2.517.2.843 0 .503-.118.902-.355 1.198a1.928 1.928 0 01-.91.62c-.384.119-.82.178-1.308.178H5.39V22.47h1.553c.65 0 1.153.133 1.508.4.355.266.533.665.533 1.198 0 .355-.082.658-.244.909a1.6 1.6 0 01-.71.555c-.296.133-.658.2-1.087.2H4.436v1.64zm14.42 7.719h7.83v-3.083h-7.83v3.083zm0-12.444h7.83v-3.083h-7.83v3.083zm0 5.79h7.386V25.42h-7.386v3.016zm-2.484-8.873V35.09h3.593V19.564h-3.593zm15.85 15.527h7.83v-3.083h-7.83v3.083zm0-12.444h7.83v-3.083h-7.83v3.083zm0 5.79h7.386V25.42H32.22v3.016zm-2.485-8.873V35.09h3.593V19.564h-3.593zm13.365 0V35.09h3.816V19.564h-3.816zm17.82 0v8.74l-10.714-9.517v16.304H53.8v-8.74l10.736 9.516V19.564H60.92zm5.344 3.35h4.259V35.09h3.749V22.913h4.28v-3.35H66.267v3.35zM82.737 35.09h7.83v-3.083h-7.83v3.083zm0-12.444h7.83v-3.083h-7.83v3.083zm0 5.79h7.387V25.42h-7.387v3.016zm-2.484-8.873V35.09h3.593V19.564h-3.593zM97.5 28.059l4.347 7.032h4.392l-4.857-7.032H97.5zm-3.882-8.495V35.09h3.749V19.564h-3.749zm2.351 3.172h3.04c.502 0 .93.081 1.286.244.369.162.65.399.843.71.192.295.288.657.288 1.086 0 .43-.096.799-.288 1.11a1.879 1.879 0 01-.843.687c-.355.148-.784.222-1.287.222H95.97V29.7h3.305c1.331 0 2.44-.215 3.328-.643.887-.43 1.56-1.02 2.018-1.775.459-.77.688-1.649.688-2.64 0-1.005-.229-1.885-.688-2.64-.458-.768-1.131-1.367-2.018-1.796-.888-.429-1.997-.643-3.328-.643H95.97v3.172zm22.725-3.172v8.74l-10.714-9.517v16.304h3.593v-8.74l10.736 9.516V19.564h-3.615zm8.605 10.07l-2.617 1.886c.354.739.85 1.42 1.486 2.04a7.311 7.311 0 002.24 1.486 7.406 7.406 0 002.817.533 6.75 6.75 0 002.107-.333 5.544 5.544 0 001.842-.931 4.422 4.422 0 001.286-1.531c.325-.621.488-1.323.488-2.107 0-.65-.103-1.228-.31-1.73a4.217 4.217 0 00-.866-1.331 5.009 5.009 0 00-1.242-.976 9.75 9.75 0 00-1.53-.732 28.666 28.666 0 01-1.864-.71c-.502-.222-.894-.466-1.175-.732a1.277 1.277 0 01-.399-.932c0-.34.14-.62.421-.843.281-.236.688-.355 1.22-.355.399 0 .769.082 1.109.244.355.148.673.363.954.644.296.266.554.584.776.953l2.862-1.597c-.266-.532-.651-1.057-1.154-1.574-.502-.518-1.138-.947-1.907-1.287-.755-.34-1.649-.51-2.684-.51-1.006 0-1.923.177-2.751.532-.813.34-1.464.843-1.952 1.509-.473.665-.71 1.456-.71 2.373 0 .769.141 1.427.422 1.974.281.532.636.99 1.064 1.375.429.37.88.673 1.354.91.488.236.916.421 1.286.554.754.281 1.361.533 1.819.755.458.221.791.458.998.71.207.236.311.554.311.953 0 .473-.178.85-.533 1.131-.355.267-.806.4-1.353.4a3.46 3.46 0 01-1.486-.333 4.54 4.54 0 01-1.286-.954 7.395 7.395 0 01-1.043-1.464z" fill="#fff"/></g><path d="M110.696 14h5.731v-1.18h-3.263l2.136-2.094a3.48 3.48 0 00.741-.976c.193-.365.29-.744.29-1.138 0-.25-.054-.508-.161-.773a2.14 2.14 0 00-.473-.73 2.281 2.281 0 00-.794-.536c-.322-.143-.701-.215-1.138-.215-.572 0-1.059.122-1.459.365a2.318 2.318 0 00-.902.987c-.2.415-.301.891-.301 1.428h1.256c0-.33.054-.62.161-.87.115-.25.276-.44.483-.568.208-.136.455-.204.741-.204.207 0 .39.035.547.107.158.064.29.154.397.268.115.115.197.244.247.387.057.136.086.275.086.418 0 .2-.032.39-.097.57a2.205 2.205 0 01-.289.536 5.949 5.949 0 01-.462.558L110.696 14zm7.937-3.757c0-.4.039-.769.118-1.105.079-.336.19-.626.333-.87.15-.243.329-.429.536-.558a1.23 1.23 0 01.687-.204c.265 0 .498.068.698.204a1.6 1.6 0 01.526.558c.15.244.265.534.343.87.079.336.118.705.118 1.105 0 .401-.039.77-.118 1.106a2.892 2.892 0 01-.343.87 1.69 1.69 0 01-.526.568 1.26 1.26 0 01-.698.193 1.28 1.28 0 01-.687-.193 1.789 1.789 0 01-.536-.569 3.115 3.115 0 01-.333-.87 4.834 4.834 0 01-.118-1.105zm-1.245 0c0 .78.122 1.46.365 2.04.25.58.594 1.03 1.03 1.352a2.53 2.53 0 001.524.483c.587 0 1.099-.16 1.535-.483.444-.322.787-.773 1.031-1.352.243-.58.364-1.26.364-2.04s-.121-1.46-.364-2.039c-.244-.58-.587-1.03-1.031-1.352-.436-.322-.948-.483-1.535-.483a2.53 2.53 0 00-1.524.483c-.436.322-.78.773-1.03 1.352-.243.58-.365 1.26-.365 2.04zM123.881 14h5.732v-1.18h-3.263l2.136-2.094a3.48 3.48 0 00.741-.976c.193-.365.289-.744.289-1.138 0-.25-.053-.508-.161-.773a2.122 2.122 0 00-.472-.73 2.281 2.281 0 00-.794-.536c-.322-.143-.701-.215-1.138-.215-.572 0-1.059.122-1.46.365a2.316 2.316 0 00-.901.987c-.201.415-.301.891-.301 1.428h1.256c0-.33.054-.62.161-.87.115-.25.276-.44.483-.568.208-.136.454-.204.741-.204.207 0 .39.035.547.107.157.064.29.154.397.268.115.115.197.244.247.387.057.136.086.275.086.418 0 .2-.032.39-.097.57a2.205 2.205 0 01-.289.536 5.949 5.949 0 01-.462.558L123.881 14zm6.478 0h5.732v-1.18h-3.263l2.136-2.094c.307-.286.554-.611.74-.976.193-.365.29-.744.29-1.138 0-.25-.054-.508-.161-.773a2.295 2.295 0 00-1.267-1.267c-.322-.142-.701-.214-1.137-.214-.573 0-1.059.122-1.46.365a2.318 2.318 0 00-.902.987c-.2.415-.3.891-.3 1.428h1.256c0-.33.053-.62.161-.87.114-.25.275-.44.483-.568.207-.136.454-.204.74-.204.208 0 .39.035.548.107.157.064.289.154.397.268.114.115.197.244.247.387.057.136.086.275.086.418 0 .2-.033.39-.097.57a2.177 2.177 0 01-.29.536 6.088 6.088 0 01-.461.558L130.359 14zM34.43 8.595a1.365 1.365 0 001.485-1.23.423.423 0 00.004-.073h-.79c-.082.315-.276.473-.698.473-.423 0-.644-.158-.71-.473h-.79a1.374 1.374 0 001.438 1.306c.019 0 .038-.003.062-.003zm-16.26 3.638V9.002h-.997v4.71h1.039l2.008-3.285v3.286h.996V9.002h-1.039l-2.008 3.231z" fill="#fff"/><path fill-rule="evenodd" clip-rule="evenodd" d="M12.223 10.05a1.966 1.966 0 011.81-1.01c.055 0 .105 0 .151.004a2.119 2.119 0 011.989 2.244c0 1.356-.845 2.513-2.403 2.513-1.597 0-2.458-1.172-2.458-3 0-2.091.504-3.42 2.295-3.659l2.078-.276.08 1.052-1.992.266c-1.279.165-1.5.799-1.55 1.867zm.116 1.134c0 .95.531 1.58 1.434 1.58.904 0 1.38-.58 1.38-1.476 0-.895-.6-1.249-1.38-1.249-.736 0-1.244.289-1.434.657v.488z" fill="#fff"/><path d="M40.656 9.002v1.763h-1.942V9.002h-.996v4.71h.996v-1.974h1.942v1.975h.996V9.002h-.996zm-7.237 3.231V9.002h-.996v4.71h1.038l2.008-3.285v3.286h.997V9.002h-1.04l-2.007 3.231zm-10.409-.349c-.108.526-.259.749-.561.749a1.32 1.32 0 01-.369-.038v1.09c.155.07.322.1.493.093a1.1 1.1 0 001.066-.738 4.81 4.81 0 00.232-1.145c.066-.63.097-1.26.097-1.894h1.326v3.712h.996V9.002h-3.155a22.91 22.91 0 01-.124 2.882z" fill="#fff"/><path fill-rule="evenodd" clip-rule="evenodd" d="M31.008 10.57l-.016 1.867c0 .288.124.407.442.411h.082v.907h-.276c-.674 0-1.062-.25-1.112-.819-.24.534-.783.873-1.372.857-.927 0-1.392-.515-1.392-1.318 0-.776.628-1.145 1.461-1.475l1.222-.476c-.05-.485-.38-.63-.869-.63-.477 0-.833.145-.887.58h-.958v-.016a1.71 1.71 0 011.845-1.56c1.093 0 1.845.488 1.83 1.672zm-2.694 1.71c0 .407.34.526.806.526.341.019.674-.104.915-.342l.012-1.276-.954.38c-.492.2-.78.358-.78.711z" fill="#fff"/><path d="M5.094 14.52c2.109.03 3.842-1.687 3.873-3.835-.035-2.152-1.768-3.87-3.873-3.839-2.108-.03-3.841 1.687-3.872 3.839.03 2.148 1.764 3.865 3.872 3.835z" fill="#FFC800"/><path d="M6.757 13.543c-1.314.754-2.74.888-3.651.439a3.895 3.895 0 003.919.027 3.823 3.823 0 001.934-3.382c-.054 1.007-.888 2.163-2.202 2.916zM5.583 7.13c.267.458-.376 1.322-1.438 1.93-1.063.607-2.136.73-2.404.272a.541.541 0 01-.03-.069.934.934 0 01.212-.78c.031-.046.066-.088.101-.134.31-.4.698-.734 1.136-.984a3.767 3.767 0 011.423-.484c.058-.008.112-.015.166-.02a.96.96 0 01.787.208c.016.02.035.039.047.062z"/><path d="M7.23 7.623c.465.799-.473 2.197-2.097 3.127-1.624.93-3.318 1.034-3.78.235a.975.975 0 01-.127-.442 3.783 3.783 0 00.395 1.833l.004.011c.147.242.357.438.605.565.91.484 2.45.319 3.892-.507 1.438-.823 2.352-2.064 2.387-3.086a1.43 1.43 0 00-.19-.799c-.054-.077-.108-.154-.166-.227A3.812 3.812 0 006.913 7.3c.131.08.24.192.317.323z"/><path d="M5.094 14.52c2.109.03 3.842-1.687 3.873-3.835-.035-2.152-1.768-3.87-3.873-3.839-2.108-.03-3.841 1.687-3.872 3.839.03 2.148 1.764 3.865 3.872 3.835z" fill="url(#gc)"/></g><defs><clipPath id="ga"><path fill="#fff" d="M0 0h138v37H0z"/></clipPath><clipPath id="gb"><path fill="#fff" transform="translate(0 10.09)" d="M0 0h139.131v26.909H0z"/></clipPath><radialGradient id="gc" cx="0" cy="0" r="1" gradientUnits="userSpaceOnUse" gradientTransform="matrix(3.87006 0 0 3.83456 5.093 10.684)"><stop offset=".5" stop-color="#fff" stop-opacity=".01"/><stop offset="1" stop-color="#fff" stop-opacity=".35"/></radialGradient></defs></svg><svg viewBox="0 0 14 18" id="puzzle-icon" xmlns="http://www.w3.org/2000/svg"><path opacity=".5" d="M0 4.147v.377l.001 13.45c.101.01 3.836.033 5.624.016.185-.002.436-.098.54-.236.216-.289.018-.509-.231-.7-1.027-.79-.955-2.295.134-2.942a1.797 1.797 0 012.398.49 1.762 1.762 0 01-.33 2.404c-.092.074-.198.136-.272.224a.466.466 0 00.251.754.694.694 0 00.176.015l5.33.001h.377v-.343c0-1.723-.003-3.447.002-5.17 0-.273-.024-.526-.323-.637-.308-.113-.477.08-.647.295-.674.854-1.875.95-2.663.22a1.765 1.765 0 01.018-2.597 1.793 1.793 0 012.637.227c.169.215.337.412.644.308.301-.103.335-.353.334-.63-.005-1.735-.002-3.47-.002-5.204v-.322h-.401c-1.73 0-3.459-.003-5.188.003-.28 0-.53-.034-.632-.334-.096-.286.08-.453.29-.614.874-.668.981-1.84.25-2.63A1.808 1.808 0 005.692.558c-.736.786-.638 1.964.229 2.635.207.161.395.322.304.61-.1.318-.365.348-.658.347C3.838 4.144 2.11 4.147.38 4.147H0z"/></svg><svg viewBox="0 0 12 18" id="rocket-icon" xmlns="http://www.w3.org/2000/svg"><path opacity=".5" fill-rule="evenodd" clip-rule="evenodd" d="M10.34 8.904l1.016.93c.368.335.644.984.644 1.477v3.62c0 .476-.277.69-.564.69a.78.78 0 01-.432-.148l-1.963-1.276c-.07-.045-.136-.1-.2-.16l-2.206 3.579c-.15.244-.372.384-.609.384-.236 0-.458-.141-.609-.386l-2.206-3.58c-.064.06-.13.11-.2.155l-1.963 1.269a.793.793 0 01-.443.131H.604c-.287 0-.604-.182-.604-.659v-3.619c0-.493.303-1.143.67-1.477l1.037-.93a20.998 20.998 0 01-.037-1.051C1.67 4.72 3.174 1.823 5.694.1a.591.591 0 01.663 0c2.52 1.722 4.022 4.62 4.022 7.753 0 .21-.013.587-.039 1.05zM4.53 6.545c0 .817.67 1.479 1.496 1.479.827 0 1.497-.662 1.497-1.479 0-.817-.67-1.479-1.497-1.479-.826 0-1.496.662-1.496 1.479z"/></svg><svg viewBox="0 0 16 18" id="rubiks-cube-icon" xmlns="http://www.w3.org/2000/svg"><path opacity=".5" fill-rule="evenodd" clip-rule="evenodd" d="M5.478 1.383l-.624.36.042.05c.019.024.032.04.049.05l.483.28c.807.467 1.613.934 2.428 1.387.09.05.27.012.373-.047.798-.447 1.59-.905 2.381-1.362l.315-.182c.05-.029.095-.065.142-.102l.07-.055a1.996 1.996 0 01-.042-.036.267.267 0 00-.042-.033l-.189-.109-1.8-1.036a4.133 4.133 0 01-.313-.206C8.507.17 8.263-.002 8.021 0c-.26.002-.52.177-.778.35a4.527 4.527 0 01-.304.194 159.3 159.3 0 00-1.46.84zM1.202 3.841l-.658.379.637.367.003.001c.827.477 1.63.94 2.44 1.39.08.046.249-.01.349-.066.83-.469 1.656-.945 2.481-1.422l.248-.143a.958.958 0 00.125-.092c.023-.019.047-.039.075-.06l-.621-.357h-.002c-.802-.462-1.59-.915-2.381-1.36a.38.38 0 00-.316.002c-.786.442-1.567.892-2.38 1.36zM11.2 6.667l-.657.377c-.81.466-1.59.915-2.376 1.357a.39.39 0 01-.317.01c-.8-.45-1.596-.908-2.414-1.378a1108 1108 0 00-.635-.365l.429-.249h.001l.91-.526.361-.208c.42-.244.84-.486 1.265-.72.1-.055.268-.105.35-.06.807.45 1.607.912 2.433 1.387l.65.375zm-2.668 5.735v.696l.666-.382c.82-.47 1.61-.921 2.392-1.386.088-.052.14-.233.14-.354.01-.893.009-1.785.007-2.678l-.001-.39c0-.057-.007-.114-.016-.184l-.015-.123-.568.326c-.837.479-1.652.946-2.465 1.42a.307.307 0 00-.134.22c-.007.93-.006 1.86-.006 2.835zm-1.834.246c.242.144.487.288.736.43.005-.032.011-.06.017-.085a.56.56 0 00.017-.116l.002-.551c.002-.898.004-1.796-.01-2.694-.002-.116-.122-.272-.23-.337-.765-.453-1.537-.894-2.31-1.335l-.386-.22a1.211 1.211 0 00-.166-.074 4.037 4.037 0 01-.108-.043c0 .289.005.573.01.855.01.646.02 1.276-.026 1.903-.05.665.168 1.04.769 1.33.574.279 1.124.605 1.685.937zm1.863 5.3a3.081 3.081 0 00-.013-.09 1.05 1.05 0 01-.017-.161v-.998c0-.69 0-1.378-.009-2.067-.003-.23.075-.355.277-.468.613-.342 1.22-.693 1.828-1.044h.001l.807-.466a2.15 2.15 0 01.174-.086c.038-.017.08-.036.128-.06v1.329l.001.523c.002.507.004 1.013-.01 1.52-.002.126-.078.305-.178.364-.77.462-1.55.91-2.329 1.36l-.51.293a.394.394 0 01-.087.032.558.558 0 00-.063.02zm-1.726-.311l.63.363v-.718c.001-.97.001-1.895-.007-2.818-.001-.08-.09-.19-.167-.235-.963-.562-1.932-1.115-2.901-1.668l-.01-.005c-.016-.01-.038-.007-.068-.005a.439.439 0 01-.054.003v.69c-.001.91-.001 1.82.006 2.729 0 .085.065.208.137.25.796.469 1.596.93 2.434 1.414zM.608 5.482l-.604-.347v.75c-.001.958-.002 1.878.01 2.799.002.09.134.206.233.264.724.425 1.453.842 2.181 1.26l.388.222c.07.04.142.077.229.121l.15.078v-.673c0-.975.001-1.919-.006-2.862-.001-.071-.08-.169-.149-.209-.796-.464-1.595-.922-2.431-1.403zm12.194 5.165v-.703c-.001-.972-.001-1.9.005-2.828a.3.3 0 01.132-.218c.801-.469 1.606-.931 2.445-1.414l.61-.35v1.46c.002.654.002 1.308-.004 1.962-.001.104-.031.262-.102.304-.803.475-1.612.94-2.459 1.425l-.627.361zm2.652-6.428l-.604.348c-.834.48-1.64.943-2.448 1.4-.068.04-.194.048-.26.011-.821-.465-1.64-.936-2.484-1.422h-.001l-.593-.342c.267-.153.532-.302.794-.45.62-.348 1.224-.687 1.806-1.06.438-.282.764-.267 1.195.009.578.368 1.176.705 1.796 1.053.262.148.529.298.8.453zM.001 10.034l.48.277h.002l1.053.607.4.228c.348.197.696.394 1.036.603.1.062.212.205.213.312.013.917.01 1.835.008 2.752l-.001.558c0 .02-.007.04-.018.07l-.02.063-.243-.135a46.534 46.534 0 01-.497-.28l-.393-.224c-.594-.34-1.189-.68-1.778-1.029-.103-.062-.23-.197-.232-.3C0 12.646 0 11.756.001 10.82v-.787zm15.994.689v-.687l-.677.388c-.815.467-1.591.913-2.36 1.37-.09.053-.147.228-.15.348a98.618 98.618 0 00-.007 1.72l.001.569v1.071l.087-.03a.503.503 0 00.092-.036l.527-.302c.765-.436 1.529-.873 2.285-1.322.103-.061.188-.233.195-.358.016-.318.013-.637.01-.957l-.003-.38v-1.394z"/></svg><svg viewBox="0 0 18 18" id="sword-icon" xmlns="http://www.w3.org/2000/svg"><path fill-rule="evenodd" clip-rule="evenodd" d="M3.966 2.893A2.662 2.662 0 012.864 3.98c-.28.148-.059.465-.059.465.287.435.548.873.764 1.254l-1.45 1.448H.713a.49.49 0 000 .98h1.609a.49.49 0 00.347-.143l5.295-5.29a.49.49 0 00.144-.347V.73a.49.49 0 10-.98 0v1.414l-1.444 1.44c-.39-.23-.842-.511-1.29-.821 0 0-.258-.183-.428.13zm-2.316.402a1.64 1.64 0 01-1.167-.483A1.636 1.636 0 010 1.647C0 1.207.171.794.483.483A1.642 1.642 0 011.65 0c.44 0 .854.172 1.166.483.312.31.483.724.483 1.164 0 .44-.172.854-.483 1.165a1.64 1.64 0 01-1.166.483zm4.613 3.397a.56.56 0 00-.79 0l-.546.546a.56.56 0 000 .79l9.328 9.317c.217.217.645.417.95.445l2.287.208a.45.45 0 00.506-.506l-.208-2.282a1.796 1.796 0 00-.445-.95l-9.33-9.319a.56.56 0 00-.79 0l-.546.547a.56.56 0 000 .79l7.81 7.801a.294.294 0 11-.416.416l-7.81-7.803z"/></svg></svg>